<svg width="86" height="87" viewBox="0 0 86 87" fill="none" xmlns="http://www.w3.org/2000/svg">
    <path
            d="M42.9521 72.6176C37.591 72.6176 32.3575 70.7009 28.1452 66.7398C21.7629 60.7343 21.38 52.4287 21.1247 48.4676C20.8694 42.3343 22.1459 36.3287 25.0817 30.962C25.337 30.4509 25.8476 30.3232 26.3582 30.5787C26.8688 30.8343 26.9964 31.3454 26.7411 31.8565C24.0606 36.8398 22.7841 42.5898 23.0394 48.3398C23.167 52.0454 23.55 59.8398 29.4217 65.3343C37.3357 72.7454 49.7174 72.362 57.1208 64.5676C57.3761 64.312 57.6314 64.0565 57.7591 63.8009C58.142 63.4176 58.6526 63.2898 59.1632 63.6731C59.5461 64.0565 59.6738 64.5676 59.2908 65.0787C59.0355 65.3343 58.7802 65.5898 58.5249 65.9731C54.3126 70.3176 48.5686 72.6176 42.9521 72.6176Z"
            fill="white"/>
    <path
            d="M60.6949 61.7563C60.5673 61.7563 60.4397 61.7563 60.312 61.6286C59.8014 61.373 59.6738 60.8619 59.9291 60.3508C61.5885 57.0286 62.6096 53.4508 62.9926 49.6175C63.8861 40.1619 59.9291 28.6619 53.4191 21.8897C50.9939 19.3341 47.0368 16.2675 42.5692 16.523C36.0593 16.7786 30.9535 23.9341 28.5282 28.1508C28.2729 28.6619 27.6347 28.7897 27.2517 28.5341C26.7411 28.2786 26.6135 27.6397 26.8688 27.2563C29.5494 22.7841 35.0381 15.1175 42.5692 14.7341C46.5263 14.3508 50.8662 16.3952 54.6956 20.6119C61.5885 27.8952 65.8008 39.9063 64.7796 49.873C64.3967 53.8341 63.2479 57.6675 61.4608 61.2452C61.4608 61.5008 61.0779 61.7563 60.6949 61.7563Z"
            fill="white"/>
    <path
            d="M71.9375 74.3112C71.4539 74.3112 70.9702 74.1907 70.6075 73.829L12.4524 15.6029C11.8479 14.8796 12.0663 13.8939 12.6708 13.1706C13.3962 12.5679 14.3869 12.348 15.1123 12.9508L73.2674 71.1769C73.9929 71.9002 73.9929 72.9852 73.2674 73.7085C72.9047 74.1907 72.4211 74.3112 71.9375 74.3112Z"
            fill="white"/>
    <rect x="1.5" y="2" width="83" height="83" rx="41.5" stroke="white" stroke-width="3"/>
</svg>
