<svg width="86" height="87" viewBox="0 0 86 87" fill="none" xmlns="http://www.w3.org/2000/svg">
    <path
            d="M48.4427 38.7062C48.3114 38.7062 48.3114 38.7062 48.18 38.7062C47.2607 38.5811 46.4727 38.0807 45.816 37.08C44.634 35.4539 43.7146 32.3267 44.5027 29.3246C45.9473 23.5705 53.0395 21.9444 53.0395 21.8193L54.0901 21.6942L54.2215 22.6949C54.6155 25.5719 54.6155 28.5741 54.0901 31.4511C53.9588 32.827 53.3021 34.3281 52.5141 35.579C51.0694 37.5804 49.7561 38.7062 48.4427 38.7062ZM52.3828 24.0709C50.6754 24.6963 47.1294 26.4476 46.3414 29.8249C45.816 32.0765 46.4727 34.7034 47.392 36.0793C47.786 36.5797 48.18 36.8299 48.3114 36.8299C48.4427 36.8299 49.2307 36.8299 50.8068 34.5783C51.4634 33.5776 51.8574 32.4518 52.1201 31.2009C52.5141 28.8242 52.6455 26.4476 52.3828 24.0709Z"
            fill="white"/>
    <path
            d="M40.8253 47.3373C40.0373 47.3373 39.2493 46.962 38.4613 46.3366C36.8852 45.0857 35.1779 42.2087 35.0465 39.2066C34.9152 33.4525 41.3506 29.9501 41.3506 29.9501L42.27 29.4497L42.664 30.4504C43.846 33.2023 44.5027 36.0794 44.7654 38.9564C44.8967 40.3324 44.7654 41.8334 44.3714 43.3345C43.9774 44.3352 42.9267 47.0871 40.9566 47.3373C41.088 47.3373 40.9566 47.3373 40.8253 47.3373ZM41.482 32.2016C39.906 33.3274 37.0166 35.7041 37.1479 39.2066C37.1479 41.5832 38.5926 43.9599 39.7746 44.9606C40.3 45.3359 40.694 45.461 40.9566 45.461C41.088 45.461 41.876 45.2108 42.7953 42.709C43.1893 41.5832 43.3207 40.3324 43.1893 39.0815C42.7953 36.8299 42.27 34.4532 41.482 32.2016Z"
            fill="white"/>
    <path
            d="M32.026 55.2179C31.2379 55.2179 30.4499 54.8426 29.6619 54.2172C28.0859 52.9663 26.3785 50.0893 26.2472 47.0872C26.2472 41.7084 31.5006 38.4561 32.5513 37.8307L33.602 37.3303L33.996 38.331C35.178 41.083 35.8347 43.96 36.2287 46.837C36.36 48.213 36.2287 49.714 35.8347 51.2151C35.4407 52.2158 34.5213 54.9677 32.42 55.2179C32.1573 55.2179 32.026 55.2179 32.026 55.2179ZM32.5513 40.0823C30.9753 41.2081 28.2172 43.7098 28.2172 47.0872C28.2172 49.4639 29.6619 51.8405 30.8439 52.8412C31.3693 53.2165 31.7633 53.3416 32.026 53.3416C32.1573 53.3416 32.9453 53.0914 33.8647 50.5897C34.2587 49.4639 34.39 48.213 34.2587 47.0872C33.996 44.5854 33.4706 42.3338 32.5513 40.0823Z"
            fill="white"/>
    <path
            d="M23.2264 63.7239C22.4384 63.7239 21.6503 63.3486 20.8623 62.7232C19.2863 61.4723 17.5789 58.5953 17.4476 55.5932C17.4476 49.8391 23.7517 46.3367 23.7517 46.3367L24.6711 45.8363L25.0651 46.837C26.2471 49.5889 26.9038 52.466 27.1664 55.343C27.2978 56.719 27.1664 58.22 26.7724 59.7211C25.8531 62.2228 24.8024 63.5988 23.3577 63.7239C23.489 63.7239 23.3577 63.7239 23.2264 63.7239ZM23.883 48.5882C22.307 49.714 19.4176 52.0907 19.549 55.5932C19.549 57.9698 20.9937 60.3465 22.1757 61.3472C22.701 61.7225 23.095 61.9727 23.3577 61.8476C23.7517 61.8476 24.4084 61.2221 25.1964 59.0956C25.5904 57.9698 25.7217 56.719 25.5904 55.5932C25.1964 53.2165 24.6711 50.8398 23.883 48.5882Z"
            fill="white"/>
    <path
            d="M31.8947 69.8532C28.6113 69.8532 25.5906 68.2271 24.2772 66.601C23.4892 65.7253 23.0952 64.8497 23.2265 64.0992C23.4892 62.0978 26.5099 61.2222 27.4293 60.8469C29.0053 60.3466 30.5813 60.2215 32.026 60.4716C35.0467 60.7218 38.0674 61.4724 40.9568 62.4731L42.0075 62.8483L41.4822 63.849C41.0881 64.4745 37.8048 69.8532 31.8947 69.8532ZM30.7126 62.2229C29.7933 62.2229 29.0053 62.348 28.0859 62.5981C25.4592 63.4738 25.1965 64.2243 25.1965 64.3494C25.1965 64.5996 25.3279 64.9748 25.7219 65.4752C26.7726 66.726 29.268 67.9769 31.7633 67.9769C31.7633 67.9769 31.7633 67.9769 31.8947 67.9769C35.4407 67.9769 37.9361 65.3501 39.1181 63.849C36.7541 63.0985 34.39 62.5981 31.8947 62.348C31.5007 62.348 31.1066 62.2229 30.7126 62.2229Z"
            fill="white"/>
    <path
            d="M40.5628 61.3473C37.2795 61.3473 34.2587 59.596 32.9454 58.095C32.1574 57.2194 31.7634 56.3437 31.8947 55.5932C32.1574 53.5918 35.1781 52.7162 36.0974 52.3409C37.6735 51.8406 39.2495 51.7155 40.6942 51.9657C43.7149 52.2158 46.7356 52.9664 49.625 53.9671L50.6757 54.3423L50.1503 55.343C49.7563 55.9685 46.3416 61.3473 40.5628 61.3473ZM39.3808 53.7169C38.4615 53.7169 37.6735 53.842 36.7541 54.0922C34.1274 54.9678 33.8647 55.7183 33.8647 55.8434C33.8647 56.0936 33.9961 56.4688 34.3901 56.9692C35.4408 58.2201 37.9361 59.4709 40.4315 59.4709C43.9776 59.4709 46.6043 56.8441 47.7863 55.343C45.4223 54.5925 43.0582 54.0922 40.5628 53.842C40.1688 53.7169 39.7748 53.7169 39.3808 53.7169Z"
            fill="white"/>
    <path
            d="M48.8368 52.3408H48.7054C45.5534 52.3408 42.5327 50.5896 41.2193 49.0885C40.4313 48.2129 40.0373 47.3373 40.1686 46.5867C40.4313 44.5853 43.452 43.7097 44.3714 43.3345C45.9474 42.8341 47.5234 42.709 48.9681 42.9592C51.9888 43.2094 55.0095 43.9599 57.8989 45.0857L58.9496 45.461L58.4243 46.3366C58.1616 46.5867 54.8782 52.3408 48.8368 52.3408ZM47.6548 44.7104C46.7354 44.7104 45.9474 44.8355 45.028 45.0857C42.4013 45.9613 42.1387 46.7118 42.1387 46.8369C42.1387 47.0871 42.27 47.4624 42.664 47.9627C43.7147 49.2136 46.2101 50.4645 48.7054 50.4645H48.8368C52.3828 50.4645 55.0095 47.8376 56.0602 46.3366C53.6962 45.586 51.3321 44.9606 48.8368 44.8355C48.3114 44.7104 47.9174 44.7104 47.6548 44.7104Z"
            fill="white"/>
    <path
            d="M56.1917 43.5848C53.8276 43.5848 51.5949 42.8342 50.2816 41.9586C49.2309 41.3332 48.7055 40.4576 48.5742 39.582C48.3115 37.5805 51.0696 36.0795 51.8576 35.454C53.1709 34.7035 54.747 34.2032 56.1917 34.0781C59.2124 33.7028 62.2331 33.7028 65.3852 34.0781L66.5672 34.2032L66.1732 35.2039L65.3852 35.0788L66.3045 35.329C65.9105 36.4548 63.8091 42.2088 58.4244 43.3346C57.6364 43.5848 56.9797 43.5848 56.1917 43.5848ZM60.9197 35.7042C59.4751 35.7042 58.0304 35.8293 56.5857 35.9544C55.2723 36.0795 54.0903 36.4548 53.0396 37.0802C50.6756 38.4562 50.6756 39.2067 50.6756 39.4569C50.6756 39.707 50.9382 40.0823 51.5949 40.4576C53.0396 41.4583 55.6663 42.0837 58.0304 41.5834C61.4451 40.8328 63.2838 37.7056 64.0718 35.9544C63.0211 35.7042 61.9704 35.7042 60.9197 35.7042Z"
            fill="white"/>
    <path
            d="M58.6868 33.3275C57.3735 33.3275 56.1915 32.9523 55.2721 32.0767C53.5647 30.3254 54.2214 27.3233 55.2721 25.3219C57.1108 21.9445 61.5762 20.0682 66.961 20.4435H67.749L67.8803 21.3191C68.537 25.8223 66.961 29.8251 63.8089 31.8265C62.6269 32.7021 60.5255 33.3275 58.6868 33.3275ZM56.7168 30.8258C57.8988 32.0767 61.0509 31.3261 62.7582 30.3254C65.1223 28.8244 66.3043 25.8223 66.0416 22.4449C61.8389 22.3198 58.4242 23.8208 56.9795 26.3226C56.4541 27.4484 55.7974 29.8251 56.7168 30.8258Z"
            fill="white"/>
    <path
            d="M15.7404 72.6052C15.609 72.6052 15.4777 72.6052 15.3464 72.4801C15.0837 72.2299 15.0837 71.8547 15.3464 71.6045L55.535 31.7014C55.7977 31.4512 56.1917 31.4512 56.4544 31.7014C56.717 31.9516 56.717 32.3269 56.4544 32.577L16.2657 72.355C16.1344 72.4801 16.003 72.6052 15.7404 72.6052Z"
            fill="white"/>
    <path
            d="M72.0322 74.4063C71.5486 74.4063 71.065 74.2858 70.7023 73.9241L12.5472 15.698C11.9426 14.9747 12.161 13.989 12.7656 13.2657C13.491 12.6629 14.4816 12.4431 15.2071 13.0459L73.3622 71.272C74.0876 71.9953 74.0876 73.0802 73.3622 73.8036C72.9995 74.2858 72.5159 74.4063 72.0322 74.4063Z"
            fill="white"/>
    <rect x="1.5" y="2" width="83" height="83" rx="41.5" stroke="white" stroke-width="3"/>
</svg>
