<svg viewBox="0 0 50 50" fill="none"
     xmlns="http://www.w3.org/2000/svg">
    <path
            d="M27.1417 4.1687C28.6619 4.16287 30.1822 4.17815 31.7021 4.21453L32.1062 4.22912C32.5729 4.24578 33.0333 4.26662 33.5896 4.29162C35.8062 4.39578 37.3187 4.74578 38.6458 5.26037C40.0208 5.78953 41.1792 6.5062 42.3375 7.66453C43.3966 8.70538 44.2163 9.96442 44.7396 11.3541C45.2542 12.6812 45.6042 14.1958 45.7083 16.4125C45.7333 16.9666 45.7542 17.4291 45.7708 17.8958L45.7833 18.3C45.8203 19.8191 45.8363 21.3387 45.8312 22.8583L45.8333 24.4125V27.1416C45.8385 28.6619 45.8225 30.1822 45.7854 31.702L45.7729 32.1062C45.7562 32.5729 45.7354 33.0333 45.7104 33.5895C45.6062 35.8062 45.2521 37.3187 44.7396 38.6458C44.218 40.037 43.3981 41.297 42.3375 42.3375C41.2958 43.3965 40.0361 44.2161 38.6458 44.7395C37.3187 45.2541 35.8062 45.6041 33.5896 45.7083C33.0333 45.7333 32.5729 45.7541 32.1062 45.7708L31.7021 45.7833C30.1822 45.8203 28.662 45.8363 27.1417 45.8312L25.5875 45.8333H22.8604C21.3401 45.8384 19.8198 45.8224 18.3 45.7854L17.8958 45.7729C17.4013 45.7549 16.9068 45.7341 16.4125 45.7104C14.1958 45.6062 12.6833 45.252 11.3542 44.7395C9.96393 44.2173 8.70466 43.3975 7.66458 42.3375C6.60426 41.2964 5.7838 40.0365 5.26042 38.6458C4.74584 37.3187 4.39583 35.8062 4.29167 33.5895C4.26847 33.0952 4.24763 32.6007 4.22917 32.1062L4.21875 31.702C4.18034 30.1822 4.16298 28.6619 4.16667 27.1416V22.8583C4.16085 21.3387 4.17613 19.8191 4.2125 18.3L4.22709 17.8958C4.24375 17.4291 4.26459 16.9666 4.28959 16.4125C4.39375 14.1937 4.74375 12.6833 5.25833 11.3541C5.78203 9.96374 6.60409 8.70505 7.66667 7.66662C8.70603 6.60568 9.9645 5.78448 11.3542 5.26037C12.6833 4.74578 14.1937 4.39578 16.4125 4.29162L17.8958 4.22912L18.3 4.2187C19.8191 4.18031 21.3387 4.16295 22.8583 4.16662L27.1417 4.1687ZM25 14.5854C23.6198 14.5658 22.2495 14.8208 20.9687 15.3355C19.6879 15.8502 18.5222 16.6143 17.5393 17.5834C16.5563 18.5525 15.7758 19.7073 15.2431 20.9807C14.7104 22.2541 14.436 23.6207 14.436 25.001C14.436 26.3813 14.7104 27.7479 15.2431 29.0213C15.7758 30.2947 16.5563 31.4495 17.5393 32.4186C18.5222 33.3877 19.6879 34.1518 20.9687 34.6665C22.2495 35.1812 23.6198 35.4361 25 35.4166C27.7627 35.4166 30.4122 34.3192 32.3657 32.3657C34.3192 30.4121 35.4167 27.7626 35.4167 25C35.4167 22.2373 34.3192 19.5878 32.3657 17.6343C30.4122 15.6808 27.7627 14.5854 25 14.5854ZM25 18.752C25.8302 18.7367 26.6552 18.887 27.4267 19.1941C28.1981 19.5012 28.9007 19.959 29.4933 20.5407C30.0859 21.1223 30.5566 21.8163 30.878 22.5819C31.1994 23.3476 31.365 24.1696 31.3651 24.9999C31.3653 25.8303 31.1999 26.6524 30.8788 27.4181C30.5577 28.1839 30.0872 28.878 29.4948 29.4598C28.9024 30.0417 28.2 30.4997 27.4286 30.807C26.6572 31.1144 25.8323 31.265 25.0021 31.25C23.3445 31.25 21.7548 30.5915 20.5827 29.4194C19.4106 28.2473 18.7521 26.6576 18.7521 25C18.7521 23.3424 19.4106 21.7526 20.5827 20.5805C21.7548 19.4084 23.3445 18.75 25.0021 18.75L25 18.752ZM35.9375 11.4604C35.2654 11.4873 34.6298 11.7732 34.1638 12.2582C33.6977 12.7433 33.4375 13.3898 33.4375 14.0625C33.4375 14.7351 33.6977 15.3816 34.1638 15.8667C34.6298 16.3517 35.2654 16.6376 35.9375 16.6645C36.6282 16.6645 37.2906 16.3902 37.7789 15.9018C38.2673 15.4134 38.5417 14.751 38.5417 14.0604C38.5417 13.3697 38.2673 12.7073 37.7789 12.2189C37.2906 11.7306 36.6282 11.4562 35.9375 11.4562V11.4604Z"
            fill="#ED953E"/>
</svg>
