<svg viewBox="0 0 37 36" fill="none"
     xmlns="http://www.w3.org/2000/svg">
    <g clip-path="url(#clip0_235_58)">
        <path
                d="M33.2979 24.845C33.2979 27.4118 31.2356 29.5021 28.7029 29.5021H3.70236V11.0571C3.70236 8.49025 5.76468 6.40002 8.2973 6.40002H33.2979V24.845Z"
                fill="white"/>
        <path
                d="M25.1571 20.1145H27.0566C27.1109 20.1145 27.2375 20.0962 27.2918 20.0962C27.6537 20.0229 27.9612 19.6928 27.9612 19.2344C27.9612 18.7945 27.6537 18.4644 27.2918 18.3728C27.2375 18.3544 27.1291 18.3544 27.0567 18.3544H25.1573V20.1145H25.1571Z"
                fill="url(#paint0_linear_235_58)"/>
        <path
                d="M26.8396 7.95837C25.0305 7.95837 23.5471 9.44364 23.5471 11.2954V14.7608H28.1963C28.3049 14.7608 28.4315 14.7608 28.5219 14.7791C29.5711 14.8341 30.3491 15.3841 30.3491 16.3374C30.3491 17.0892 29.8244 17.731 28.8476 17.8594V17.8959C29.9148 17.9693 30.729 18.5744 30.729 19.5094C30.729 20.5179 29.8244 21.1779 28.6304 21.1779H23.529V27.9619H28.3591C30.1681 27.9619 31.6516 26.4768 31.6516 24.6249V7.95837H26.8396Z"
                fill="url(#paint1_linear_235_58)"/>
        <path
                d="M27.7259 16.5577C27.7259 16.1176 27.4184 15.8242 27.0566 15.7691C27.0205 15.7691 26.93 15.7509 26.8758 15.7509H25.1571V17.3643H26.8758C26.9301 17.3643 27.0385 17.3643 27.0567 17.346C27.4185 17.291 27.726 16.9977 27.726 16.5576L27.7259 16.5577Z"
                fill="url(#paint2_linear_235_58)"/>
        <path
                d="M8.64087 7.95837C6.83185 7.95837 5.34837 9.44364 5.34837 11.2954V19.5279C6.27104 19.9862 7.22977 20.2796 8.18862 20.2796C9.32828 20.2796 9.94331 19.5829 9.94331 18.6294V14.7424H12.7654V18.611C12.7654 20.1145 11.8429 21.343 8.71324 21.343C6.81381 21.343 5.33034 20.9212 5.33034 20.9212V27.9435H10.1604C11.9694 27.9435 13.4529 26.4584 13.4529 24.6065V7.95861H8.64076L8.64087 7.95837Z"
                fill="url(#paint3_linear_235_58)"/>
        <path
                d="M17.7402 7.95837C15.9312 7.95837 14.4477 9.44364 14.4477 11.2954V15.6591C15.28 14.944 16.7272 14.4857 19.0608 14.5957C20.309 14.6508 21.6476 14.9991 21.6476 14.9991V16.4109C20.9783 16.0626 20.1824 15.7508 19.1512 15.6774C17.3784 15.5491 16.3111 16.4292 16.3111 17.9693C16.3111 19.5278 17.3784 20.4079 19.1512 20.2612C20.1824 20.1878 20.9784 19.8579 21.6476 19.5278V20.9396C21.6476 20.9396 20.3271 21.2879 19.0608 21.343C16.7272 21.4529 15.28 20.9945 14.4478 20.2796V27.9802H19.2779C21.0869 27.9802 22.5703 26.4951 22.5703 24.6432V7.95861H17.7402V7.95837Z"
                fill="url(#paint4_linear_235_58)"/>
    </g>
    <defs>
        <linearGradient id="paint0_linear_235_58" x1="-136.152" y1="106.58" x2="676.796" y2="106.58"
                        gradientUnits="userSpaceOnUse">
            <stop stop-color="#007940"/>
            <stop offset="0.2285" stop-color="#00873F"/>
            <stop offset="0.7433" stop-color="#40A737"/>
            <stop offset="1" stop-color="#5CB531"/>
        </linearGradient>
        <linearGradient id="paint1_linear_235_58" x1="25.0155" y1="1007.34" x2="838.005" y2="1007.34"
                        gradientUnits="userSpaceOnUse">
            <stop stop-color="#007940"/>
            <stop offset="0.2285" stop-color="#00873F"/>
            <stop offset="0.7433" stop-color="#40A737"/>
            <stop offset="1" stop-color="#5CB531"/>
        </linearGradient>
        <linearGradient id="paint2_linear_235_58" x1="-136.176" y1="96.1945" x2="676.816" y2="96.1945"
                        gradientUnits="userSpaceOnUse">
            <stop stop-color="#007940"/>
            <stop offset="0.2285" stop-color="#00873F"/>
            <stop offset="0.7433" stop-color="#40A737"/>
            <stop offset="1" stop-color="#5CB531"/>
        </linearGradient>
        <linearGradient id="paint3_linear_235_58" x1="6.75991" y1="1007.34" x2="832.274" y2="1007.34"
                        gradientUnits="userSpaceOnUse">
            <stop stop-color="#1F286F"/>
            <stop offset="0.4751" stop-color="#004E94"/>
            <stop offset="0.8261" stop-color="#0066B1"/>
            <stop offset="1" stop-color="#006FBC"/>
        </linearGradient>
        <linearGradient id="paint4_linear_235_58" x1="9.76912" y1="1007.33" x2="811.541" y2="1007.33"
                        gradientUnits="userSpaceOnUse">
            <stop stop-color="#6C2C2F"/>
            <stop offset="0.1735" stop-color="#882730"/>
            <stop offset="0.5731" stop-color="#BE1833"/>
            <stop offset="0.8585" stop-color="#DC0436"/>
            <stop offset="1" stop-color="#E60039"/>
        </linearGradient>
        <clipPath id="clip0_235_58">
            <rect width="29.6" height="23.2" fill="white" transform="translate(3.7 6.40002)"/>
        </clipPath>
    </defs>
</svg>