<svg class="w-[36px] h-[36px] lg:w-[70px] lg:h-[70px]" viewBox="0 0 37 36" fill="none"
     xmlns="http://www.w3.org/2000/svg">
    <g clip-path="url(#clip0_235_29)">
        <path d="M22.9341 23.7792H14.0659V7.77576H22.9341V23.7792Z" fill="#6C6BBD"/>
        <path
                d="M14.6289 15.7778C14.6289 12.5314 16.1425 9.63963 18.4998 7.7761C16.776 6.41339 14.6003 5.59998 12.2361 5.59998C6.6389 5.59998 2.10168 10.1566 2.10168 15.7778C2.10168 21.3989 6.6389 25.9556 12.2361 25.9556C14.6004 25.9556 16.776 25.1422 18.4998 23.7794C16.1425 21.9159 14.6289 19.0242 14.6289 15.7778Z"
                fill="#D32011"/>
        <path
                d="M34.8984 15.7778C34.8984 21.3989 30.3611 25.9556 24.7639 25.9556C22.3996 25.9556 20.224 25.1422 18.4996 23.7794C20.8575 21.9159 22.3712 19.0242 22.3712 15.7778C22.3712 12.5314 20.8575 9.63963 18.4996 7.7761C20.224 6.41339 22.3997 5.59998 24.7639 5.59998C30.3611 5.59998 34.8984 10.1566 34.8984 15.7778Z"
                fill="#0099DF"/>
        <path
                d="M25.9347 28.3011C26.0526 28.3011 26.2221 28.3238 26.3516 28.3748L26.1712 28.9288C26.0475 28.8777 25.9237 28.8608 25.8052 28.8608C25.4224 28.8608 25.231 29.1092 25.231 29.5558V31.0712H24.6453V28.369H25.2252V28.6971C25.3773 28.4596 25.597 28.3011 25.9347 28.3011ZM23.7708 28.9061H22.8138V30.1271C22.8138 30.3983 22.9092 30.5794 23.2025 30.5794C23.3545 30.5794 23.5458 30.5283 23.7199 30.4267L23.8886 30.9296C23.7031 31.0595 23.4105 31.1392 23.1572 31.1392C22.4645 31.1392 22.2229 30.7658 22.2229 30.1381V28.9061H21.6765V28.369H22.2229V27.5492H22.8138V28.369H23.7708V28.9061ZM16.277 29.4827C16.3395 29.0925 16.5755 28.8266 16.9924 28.8266C17.3693 28.8266 17.6115 29.064 17.6734 29.4827H16.277ZM18.2818 29.7202C18.2759 28.8776 17.7578 28.3011 17.0033 28.3011C16.2152 28.3011 15.6636 28.8777 15.6636 29.72C15.6636 30.5787 16.2378 31.1385 17.0432 31.1385C17.4486 31.1385 17.8197 31.0368 18.1464 30.76L17.8591 30.3245C17.6342 30.5057 17.3467 30.6073 17.0768 30.6073C16.6998 30.6073 16.3563 30.432 16.2719 29.9461H18.2702C18.2759 29.8722 18.2818 29.799 18.2818 29.7202ZM20.8543 29.0588C20.6912 28.9566 20.3593 28.8265 20.0158 28.8265C19.6949 28.8265 19.5035 28.9456 19.5035 29.1436C19.5035 29.3241 19.7059 29.3752 19.9592 29.4089L20.235 29.4484C20.8207 29.5338 21.1751 29.7823 21.1751 30.2573C21.1751 30.7716 20.7247 31.1391 19.9482 31.1391C19.5087 31.1391 19.1034 31.0259 18.7824 30.7884L19.0583 30.3303C19.2555 30.483 19.5487 30.6131 19.9539 30.6131C20.3535 30.6131 20.5675 30.4947 20.5675 30.285C20.5675 30.133 20.4154 30.0476 20.0945 30.0029L19.8187 29.9634C19.2161 29.878 18.8895 29.6068 18.8895 29.1662C18.8895 28.6292 19.3289 28.3011 20.0101 28.3011C20.4379 28.3011 20.8265 28.3976 21.1075 28.5839L20.8543 29.0588ZM28.0747 28.8594C27.9543 28.8594 27.8428 28.8809 27.739 28.923C27.6386 28.9638 27.5474 29.0245 27.4709 29.1015C27.394 29.1804 27.3335 29.2739 27.2931 29.3766C27.2499 29.4833 27.2286 29.6011 27.2286 29.7292C27.2286 29.858 27.2499 29.975 27.2931 30.0818C27.3363 30.1886 27.3956 30.2805 27.4709 30.3568C27.5474 30.4338 27.6386 30.4946 27.739 30.5354C27.8428 30.5781 27.9543 30.5988 28.0747 30.5988C28.1951 30.5988 28.3074 30.5782 28.4104 30.5354C28.5112 30.4948 28.6029 30.434 28.6798 30.3568C28.7565 30.2805 28.8158 30.1886 28.8596 30.0818C28.9028 29.975 28.9241 29.858 28.9241 29.7292C28.9241 29.6011 28.9028 29.4833 28.8596 29.3766C28.8158 29.2698 28.7565 29.1779 28.6798 29.1015C28.6029 29.0244 28.5113 28.9636 28.4105 28.923C28.3038 28.8801 28.1898 28.8586 28.0748 28.8596L28.0747 28.8594ZM28.0747 28.3011C28.2835 28.3011 28.4768 28.3374 28.6547 28.4105C28.8266 28.4791 28.9834 28.5812 29.1161 28.7107C29.2467 28.8393 29.3504 28.9928 29.4209 29.1623C29.4943 29.3364 29.5311 29.5254 29.5311 29.7292C29.5311 29.933 29.4943 30.1219 29.4209 30.296C29.3504 30.4657 29.2467 30.6195 29.116 30.7483C28.9866 30.8758 28.8325 30.9755 28.6548 31.0485C28.4767 31.1211 28.2835 31.1573 28.0747 31.1573C27.8659 31.1573 27.6726 31.1211 27.4947 31.0485C27.3169 30.9755 27.1642 30.8758 27.0353 30.7483C26.9054 30.6191 26.8023 30.4654 26.7317 30.296C26.6583 30.1219 26.6215 29.933 26.6215 29.7292C26.6215 29.5254 26.6583 29.3364 26.7317 29.1624C26.8023 28.9932 26.9055 28.8397 27.0353 28.7107C27.1671 28.5811 27.3233 28.479 27.4947 28.4105C27.6726 28.3374 27.8659 28.3011 28.0747 28.3011ZM12.8567 29.72C12.8567 29.2452 13.1667 28.8551 13.6731 28.8551C14.1571 28.8551 14.4838 29.2284 14.4838 29.7202C14.4838 30.2119 14.1571 30.5847 13.6731 30.5847C13.1667 30.5847 12.8567 30.195 12.8567 29.72ZM15.0355 29.72V28.369H14.4502V28.6971C14.2641 28.4538 13.9831 28.3011 13.6003 28.3011C12.8458 28.3011 12.2548 28.8944 12.2548 29.72C12.2548 30.5452 12.8458 31.1391 13.6003 31.1391C13.9831 31.1391 14.264 30.9864 14.4502 30.7431V31.0712H15.0355V29.72ZM11.7366 31.0713V29.3754C11.7366 28.7367 11.3312 28.307 10.6785 28.3012C10.335 28.2955 9.9799 28.4029 9.73252 28.782C9.54689 28.4824 9.25377 28.3012 8.84265 28.3012C8.55581 28.3012 8.27422 28.386 8.05451 28.7024V28.3692H7.46942V31.0713H8.06027V29.5734C8.06027 29.1042 8.31932 28.8552 8.71877 28.8552C9.10746 28.8552 9.30463 29.1094 9.30463 29.5676V31.0713H9.89561V29.5733C9.89561 29.1041 10.1662 28.8551 10.5541 28.8551C10.9543 28.8551 11.1457 29.1092 11.1457 29.5675V31.0713H11.7366Z"
                fill="#110F0D"/>
    </g>
    <defs>
        <clipPath id="clip0_235_29">
            <rect width="32.8" height="25.6" fill="white" transform="translate(2.10001 5.59998)"/>
        </clipPath>
    </defs>
</svg>