<svg class="w-[36px] h-[36px] lg:w-[70px] lg:h-[70px]" viewBox="0 0 70 70" fill="none" xmlns="http://www.w3.org/2000/svg">
    <g clip-path="url(#clip0_403_106)">
        <path d="M14.7078 60.4191V57.1246C14.7078 55.8613 13.9421 55.0379 12.6295 55.0379C11.9734 55.0379 11.2624 55.2575 10.7702 55.9714C10.3876 55.3673 9.84077 55.0379 9.02046 55.0379C8.47342 55.0379 7.92688 55.2025 7.4892 55.8066V55.1477H6.34082V60.4191H7.4892V57.5088C7.4892 56.5755 7.98144 56.136 8.74719 56.136C9.51244 56.136 9.89557 56.6303 9.89557 57.5088V60.4191H11.044V57.5088C11.044 56.5755 11.5905 56.136 12.3014 56.136C13.0672 56.136 13.4498 56.6303 13.4498 57.5088V60.4191H14.7078ZM31.7146 55.1477H29.8555V53.5553H28.7071V55.1477H27.6681V56.1908H28.7068V58.6071C28.7068 59.8153 29.1991 60.529 30.5116 60.529C31.0039 60.529 31.5504 60.3644 31.9335 60.1447L31.6052 59.1562C31.2771 59.3758 30.8945 59.4308 30.621 59.4308C30.0742 59.4308 29.8555 59.1014 29.8555 58.5521V56.1908H31.7146V55.1477ZM41.4486 55.0376C40.7925 55.0376 40.3551 55.3673 40.0815 55.8066V55.1477H38.9332V60.4191H40.0815V57.454C40.0815 56.5755 40.4642 56.0812 41.1751 56.0812C41.3938 56.0812 41.6674 56.1363 41.8861 56.191L42.2141 55.0929C41.9954 55.0379 41.6674 55.0379 41.4486 55.0379V55.0376ZM26.7384 55.5869C26.1914 55.2025 25.4259 55.0379 24.6056 55.0379C23.2933 55.0379 22.4184 55.6968 22.4184 56.7401C22.4184 57.6188 23.0745 58.1129 24.2229 58.2777L24.7697 58.3327C25.3713 58.4423 25.6994 58.6071 25.6994 58.8818C25.6994 59.266 25.262 59.5407 24.4962 59.5407C23.7307 59.5407 23.1291 59.266 22.7462 58.9916L22.1994 59.8701C22.801 60.3093 23.6213 60.529 24.4414 60.529C25.9727 60.529 26.8478 59.8153 26.8478 58.8268C26.8478 57.8932 26.1368 57.399 25.043 57.2344L24.4962 57.1793C24.004 57.1243 23.6213 57.0147 23.6213 56.6853C23.6213 56.3008 24.004 56.0812 24.6056 56.0812C25.262 56.0812 25.9181 56.3556 26.2462 56.5205L26.7384 55.5869ZM57.2527 55.0379C56.5963 55.0379 56.1589 55.3673 55.8854 55.8066V55.1477H54.737V60.4191H55.8854V57.454C55.8854 56.5755 56.2682 56.0812 56.9789 56.0812C57.1979 56.0812 57.4714 56.1363 57.6901 56.191L58.0182 55.0929C57.7995 55.0379 57.4714 55.0379 57.2527 55.0379ZM42.597 57.7834C42.597 59.3758 43.6906 60.529 45.386 60.529C46.1515 60.529 46.6983 60.3644 47.2451 59.9251L46.6983 58.9916C46.2609 59.321 45.8235 59.4856 45.3312 59.4856C44.4016 59.4856 43.7454 58.8268 43.7454 57.7834C43.7454 56.7951 44.4016 56.136 45.3312 56.0812C45.8235 56.0812 46.2609 56.2458 46.6983 56.5755L47.2451 55.642C46.6983 55.2025 46.1515 55.0379 45.386 55.0379C43.6906 55.0379 42.597 56.191 42.597 57.7834ZM53.206 57.7834V55.1477H52.0576V55.8066C51.6747 55.3125 51.1279 55.0379 50.417 55.0379C48.9405 55.0379 47.7921 56.191 47.7921 57.7834C47.7921 59.3758 48.9405 60.529 50.417 60.529C51.1825 60.529 51.7295 60.2546 52.0576 59.7603V60.4191H53.206V57.7834ZM48.9951 57.7834C48.9951 56.8499 49.5967 56.0812 50.5809 56.0812C51.5106 56.0812 52.1669 56.7951 52.1669 57.7834C52.1669 58.7169 51.5106 59.4856 50.5809 59.4856C49.5967 59.4306 48.9951 58.7169 48.9951 57.7834ZM35.2693 55.0379C33.738 55.0379 32.6442 56.136 32.6442 57.7834C32.6442 59.4308 33.7378 60.529 35.3239 60.529C36.0894 60.529 36.8551 60.3093 37.4567 59.8153L36.9097 58.9916C36.4722 59.321 35.9255 59.5407 35.3787 59.5407C34.6677 59.5407 33.9568 59.2112 33.7926 58.2774H37.6754V57.8385C37.7302 56.136 36.746 55.0379 35.2693 55.0379ZM35.2693 56.0262C35.98 56.0262 36.4725 56.4657 36.5816 57.2894H33.8474C33.9568 56.5755 34.449 56.0262 35.2693 56.0262ZM63.7601 57.7834V53.061H62.6117V55.8066C62.2289 55.3125 61.6821 55.0379 60.9711 55.0379C59.4947 55.0379 58.3463 56.191 58.3463 57.7834C58.3463 59.3758 59.4947 60.529 60.9711 60.529C61.7369 60.529 62.2837 60.2546 62.6117 59.7603V60.4191H63.7601V57.7834ZM59.5495 57.7834C59.5495 56.8499 60.1508 56.0812 61.1353 56.0812C62.0649 56.0812 62.7211 56.7951 62.7211 57.7834C62.7211 58.7169 62.0649 59.4856 61.1353 59.4856C60.1508 59.4306 59.5495 58.7169 59.5495 57.7834ZM21.1604 57.7834V55.1477H20.012V55.8066C19.6292 55.3125 19.0824 55.0379 18.3714 55.0379C16.895 55.0379 15.7466 56.191 15.7466 57.7834C15.7466 59.3758 16.895 60.529 18.3714 60.529C19.1372 60.529 19.684 60.2546 20.012 59.7603V60.4191H21.1604V57.7834ZM16.895 57.7834C16.895 56.8499 17.4966 56.0812 18.4808 56.0812C19.4104 56.0812 20.0668 56.7951 20.0668 57.7834C20.0668 58.7169 19.4104 59.4856 18.4808 59.4856C17.4966 59.4306 16.895 58.7169 16.895 57.7834Z" fill="black"/>
        <path d="M26.3555 15.1167H43.5812V46.1968H26.3555V15.1167Z" fill="#FF5F00"/>
        <path d="M27.4483 30.657C27.4483 24.3422 30.4012 18.7411 34.9399 15.1168C31.6044 12.4811 27.3937 10.8887 22.8002 10.8887C11.9175 10.8887 3.11328 19.7294 3.11328 30.657C3.11328 41.5843 11.9175 50.4253 22.7999 50.4253C27.3935 50.4253 31.6041 48.8329 34.9399 46.1969C30.4012 42.6276 27.4483 36.9717 27.4483 30.657Z" fill="#EB001B"/>
        <path d="M66.8222 30.657C66.8222 41.5843 58.018 50.4253 47.1356 50.4253C42.542 50.4253 38.3314 48.8329 34.9956 46.1969C39.5891 42.5729 42.4875 36.9717 42.4875 30.657C42.4875 24.3422 39.5343 18.7411 34.9956 15.1168C38.3311 12.4811 42.542 10.8887 47.1356 10.8887C58.018 10.8887 66.8222 19.7844 66.8222 30.657Z" fill="#F79E1B"/>
    </g>
    <defs>
        <clipPath id="clip0_403_106">
            <rect width="63.7777" height="49.7778" fill="white" transform="translate(3.11108 10.8887)"/>
        </clipPath>
    </defs>
</svg>
