<svg width="86" height="87" viewBox="0 0 86 87" fill="none" xmlns="http://www.w3.org/2000/svg">
    <path
            d="M44.3457 70.91L27.7818 68.1374V34.3831C27.7818 33.9009 28.1445 33.4187 28.749 33.4187C29.2326 33.4187 29.7162 33.7804 29.7162 34.3831V66.5702L44.4666 69.1018L56.4362 66.6908V63.3153C56.4362 62.8331 56.7989 62.4715 57.4034 62.4715C57.887 62.4715 58.2497 62.8331 58.2497 63.4359V68.2579L44.3457 70.91Z"
            fill="white"/>
    <path
            d="M44.3452 70.9103C43.8615 70.9103 43.3779 70.5486 43.3779 69.9459V50.5372C43.3779 50.055 43.7406 49.5728 44.3452 49.5728C44.8288 49.5728 45.3124 49.9344 45.3124 50.5372V69.9459C45.3124 70.5486 44.8288 70.9103 44.3452 70.9103Z"
            fill="white"/>
    <path
            d="M44.2248 59.3373H44.1039L28.6281 57.0468C28.1445 56.9263 27.7818 56.4441 27.7818 55.9619C27.9027 55.4797 28.2654 55.118 28.8699 55.2386L44.3457 57.529C44.8293 57.6496 45.192 58.0112 45.0711 58.614C45.0711 58.9757 44.7084 59.3373 44.2248 59.3373Z"
            fill="white"/>
    <path
            d="M33.9474 40.7724C33.8265 40.7724 33.8265 40.7724 33.9474 40.7724L28.7485 40.5313C28.2649 40.5313 27.9022 40.0491 27.9022 39.5669C27.9022 39.0847 28.3858 38.723 28.8694 38.723L34.0683 38.9641C34.5519 38.9641 34.9146 39.4463 34.9146 39.9285C34.7937 40.4107 34.431 40.7724 33.9474 40.7724Z"
            fill="white"/>
    <path
            d="M29.8364 29.8024C29.5946 29.8024 29.3528 29.6818 29.2319 29.5613C28.8692 29.1996 28.8692 28.7174 29.111 28.2352L35.5189 21.0021V15.2157L51.7201 15.8185V22.8104L36.8489 22.3282L30.5618 29.4407C30.32 29.6818 30.0782 29.8024 29.8364 29.8024ZM37.3325 20.5199L49.9066 20.8816V17.5062L37.3325 17.024V20.5199Z"
            fill="white"/>
    <path
            d="M44.3452 44.3889C43.8615 44.3889 43.3779 44.0273 43.3779 43.4245L43.4988 31.8516L50.7531 20.1582L57.8865 28.9584C58.2492 29.3201 58.1283 29.9228 57.7656 30.2845C57.4029 30.6461 56.7983 30.5256 56.4356 30.1639L50.9949 23.4131L45.4333 32.4544L45.3124 43.5451C45.3124 44.0273 44.8288 44.3889 44.3452 44.3889Z"
            fill="white"/>
    <path
            d="M57.1606 57.288C56.677 57.288 56.1934 56.9263 56.1934 56.3235V31.3695L44.4656 33.1778L30.1989 31.9723C29.7153 31.9723 29.3525 31.4901 29.3525 31.0078C29.3525 30.5256 29.8362 30.164 30.3198 30.164L44.3447 31.249L58.0069 29.1996V56.3235C58.1278 56.9263 57.7651 57.288 57.1606 57.288Z"
            fill="white"/>
    <path
            d="M71.9375 74.3111C71.4539 74.3111 70.9702 74.1905 70.6075 73.8289L12.4524 15.6028C11.8479 14.8795 12.0663 13.8938 12.6708 13.1705C13.3962 12.5677 14.3869 12.3479 15.1123 12.9507L73.2674 71.1768C73.9929 71.9001 73.9929 72.985 73.2674 73.7083C72.9047 74.1905 72.4211 74.3111 71.9375 74.3111Z"
            fill="white"/>
    <rect x="1.5" y="2" width="83" height="83" rx="41.5" stroke="white" stroke-width="3"/>
</svg>
