<svg viewBox="0 0 37 36" fill="none"
     xmlns="http://www.w3.org/2000/svg">
    <g clip-path="url(#clip0_235_42)">
        <path
                d="M8.99912 8.80005H16.7721C17.8571 8.80005 18.5319 9.6346 18.2789 10.6619L14.66 25.3227C14.4046 26.3464 13.3181 27.1816 12.2325 27.1816H4.46013C3.37666 27.1816 2.70025 26.3464 2.95339 25.3227L6.5738 10.6619C6.82694 9.6346 7.91272 8.80005 8.99912 8.80005Z"
                fill="#E21836"/>
        <path
                d="M16.125 8.80005H25.0638C26.1486 8.80005 25.6595 9.6346 25.4043 10.6619L21.7859 25.3227C21.5321 26.3464 21.6112 27.1816 20.5241 27.1816H11.5854C10.4983 27.1816 9.82554 26.3464 10.0809 25.3227L13.699 10.6619C13.9559 9.6346 15.0395 8.80005 16.125 8.80005Z"
                fill="#00447C"/>
        <path
                d="M24.7093 8.80005H32.4822C33.5689 8.80005 34.2437 9.6346 33.9886 10.6619L30.3701 25.3227C30.1148 26.3464 29.0277 27.1816 27.9412 27.1816H20.1719C19.0847 27.1816 18.4104 26.3464 18.6651 25.3227L22.284 10.6619C22.5371 9.6346 23.6222 8.80005 24.7093 8.80005Z"
                fill="#007B84"/>
        <path
                d="M11.0288 13.4985C10.2295 13.5062 9.99348 13.4985 9.91804 13.4817C9.88903 13.6117 9.34961 15.9595 9.34815 15.9615C9.232 16.4364 9.14754 16.7751 8.8604 16.9937C8.69758 17.1208 8.50733 17.1822 8.28674 17.1822C7.93233 17.1822 7.72575 17.016 7.69114 16.7011L7.68443 16.593C7.68443 16.593 7.79241 15.9567 7.79241 15.9531C7.79241 15.9531 8.35852 13.8135 8.45992 13.5307C8.46529 13.5146 8.46675 13.5062 8.46809 13.4985C7.36622 13.5077 7.17085 13.4985 7.15745 13.4817C7.15001 13.5047 7.12271 13.6375 7.12271 13.6375L6.54466 16.049L6.49505 16.2535L6.39902 16.9224C6.39902 17.1208 6.44033 17.2828 6.52248 17.4198C6.78585 17.854 7.53709 17.9191 7.96206 17.9191C8.50953 17.9191 9.02323 17.8093 9.37033 17.6089C9.97276 17.2731 10.1305 16.748 10.271 16.2813L10.3362 16.042C10.3362 16.042 10.9194 13.8198 11.0184 13.5307C11.0221 13.5146 11.0237 13.5062 11.0288 13.4985ZM13.0129 15.2912C12.8724 15.2912 12.6156 15.3234 12.3848 15.4301C12.3011 15.4707 12.2218 15.5175 12.1382 15.5642L12.2137 15.3073L12.1724 15.264C11.683 15.3575 11.5735 15.37 11.1214 15.4301L11.0836 15.4539C11.0311 15.8644 10.9844 16.1732 10.7899 16.9804C10.7154 17.279 10.6393 17.5772 10.5618 17.8751L10.5825 17.9127C11.0459 17.8897 11.1864 17.8897 11.5891 17.8959L11.6216 17.8626C11.6728 17.6153 11.6794 17.5573 11.7927 17.0565C11.846 16.8192 11.957 16.2975 12.0117 16.1118C12.1123 16.0677 12.2116 16.0245 12.3063 16.0245C12.532 16.0245 12.5045 16.2102 12.4958 16.2843C12.4861 16.4085 12.4039 16.8143 12.3196 17.1628L12.2633 17.3876C12.2242 17.5538 12.1811 17.7151 12.1419 17.8798L12.159 17.9127C12.6155 17.8897 12.7548 17.8897 13.1447 17.8959L13.1905 17.8626C13.2611 17.4764 13.2817 17.373 13.4067 16.8108L13.4696 16.5525C13.5918 16.0468 13.6533 15.7905 13.5608 15.5816C13.463 15.3476 13.2283 15.2912 13.0129 15.2912ZM15.2296 15.8205C14.9868 15.8645 14.832 15.8938 14.6782 15.9127C14.5258 15.9357 14.377 15.9568 14.1425 15.9875L14.1238 16.0033L14.1068 16.016C14.0824 16.1809 14.0653 16.3234 14.0329 16.4909C14.0055 16.6641 13.9632 16.861 13.8945 17.1438C13.8412 17.3602 13.8138 17.4357 13.7834 17.5118C13.7538 17.588 13.7213 17.6621 13.6614 17.875L13.6754 17.8946L13.6871 17.9127C13.9064 17.9029 14.0498 17.8959 14.1972 17.8946C14.3444 17.8897 14.497 17.8946 14.733 17.8958L14.7537 17.88L14.7759 17.8624C14.81 17.6704 14.815 17.6188 14.8358 17.5251C14.8565 17.4246 14.8921 17.2856 14.9795 16.914C15.0208 16.7396 15.0668 16.5656 15.1097 16.3876C15.1542 16.2102 15.2007 16.0357 15.2451 15.8611L15.2385 15.84L15.2296 15.8205ZM15.2347 15.1068C15.0141 14.984 14.6272 15.023 14.3666 15.1926C14.1069 15.3589 14.0773 15.5949 14.2971 15.7193C14.5138 15.8387 14.9024 15.8031 15.1606 15.632C15.4198 15.4622 15.4523 15.2284 15.2347 15.1068ZM16.5684 17.9512C17.0146 17.9512 17.472 17.8351 17.8163 17.4909C18.0811 17.2117 18.2026 16.7962 18.2447 16.625C18.3815 16.058 18.2749 15.7932 18.1411 15.632C17.9375 15.3861 17.5779 15.3073 17.2048 15.3073C16.9806 15.3073 16.4463 15.3282 16.0288 15.6914C15.729 15.9532 15.5906 16.3087 15.5071 16.6493C15.4228 16.9966 15.3258 17.6215 15.9349 17.8542C16.1228 17.9303 16.3937 17.9512 16.5684 17.9512ZM16.5335 16.6753C16.6364 16.2459 16.7579 15.8855 17.0678 15.8855C17.3107 15.8855 17.3284 16.1537 17.2204 16.5844C17.201 16.6801 17.1124 17.0357 16.9925 17.187C16.9087 17.2988 16.8097 17.3666 16.7 17.3666C16.6675 17.3666 16.4737 17.3666 16.4706 17.095C16.4692 16.961 16.4982 16.824 16.5335 16.6753ZM19.3599 17.896L19.3948 17.8626C19.4443 17.6153 19.4524 17.5572 19.5619 17.0566C19.6167 16.8192 19.7301 16.2976 19.7832 16.1118C19.884 16.0676 19.9816 16.0244 20.0794 16.0244C20.3035 16.0244 20.2762 16.2101 20.2673 16.2842C20.2591 16.4086 20.1769 16.8142 20.0911 17.1627L20.0378 17.3875C19.9971 17.5538 19.9527 17.715 19.9135 17.8799L19.9306 17.9128C20.3888 17.8898 20.5226 17.8898 20.9148 17.896L20.9622 17.8626C21.031 17.4762 21.0496 17.3729 21.1784 16.8108L21.2397 16.5524C21.3626 16.0467 21.4247 15.7906 21.3337 15.5818C21.2332 15.3477 20.9971 15.2913 20.7847 15.2913C20.6439 15.2913 20.3858 15.3232 20.1563 15.4302C20.0742 15.4707 19.992 15.5174 19.9113 15.5643L19.9816 15.3074L19.9438 15.2639C19.4546 15.3575 19.343 15.37 18.8915 15.4302L18.8567 15.4539C18.802 15.8645 18.7575 16.1731 18.563 16.9805C18.4884 17.279 18.4124 17.5772 18.335 17.8751L18.3557 17.9128C18.8197 17.8898 18.9581 17.8898 19.3599 17.896ZM22.7259 17.9127C22.7546 17.78 22.9258 16.9938 22.9272 16.9938C22.9272 16.9938 23.0729 16.4169 23.0819 16.396C23.0819 16.396 23.1277 16.3359 23.1735 16.3121H23.2409C23.8774 16.3121 24.5961 16.3121 25.1592 15.9211C25.5425 15.6529 25.8046 15.257 25.9214 14.7757C25.9518 14.6577 25.9741 14.5174 25.9741 14.3771C25.9741 14.1928 25.935 14.0104 25.8216 13.8679C25.5344 13.4888 24.9624 13.4817 24.3021 13.4789L23.9767 13.4817C23.1315 13.4916 22.7925 13.4888 22.6532 13.4727C22.6415 13.5307 22.6194 13.6341 22.6194 13.6341C22.6194 13.6341 22.3166 14.9581 22.3166 14.9602L21.558 17.9079C22.2959 17.8995 22.5985 17.8995 22.7259 17.9127ZM23.2869 15.5607C23.2869 15.5607 23.6086 14.2394 23.6072 14.2444L23.6176 14.1766L23.6221 14.1251L23.7508 14.1375C23.7508 14.1375 24.4147 14.1913 24.4302 14.1927C24.6922 14.2884 24.8002 14.5349 24.7249 14.8567C24.656 15.1509 24.4539 15.3981 24.1941 15.5175C23.9802 15.6187 23.7182 15.6271 23.4482 15.6271H23.2736L23.2869 15.5607ZM25.291 16.6998C25.2059 17.0419 25.1082 17.6669 25.7143 17.8897C25.9076 17.9672 26.0807 17.9903 26.2566 17.9819C26.4426 17.9725 26.6148 17.8845 26.7743 17.7579L26.7311 17.9142L26.7586 17.9475C27.1946 17.9303 27.3298 17.9303 27.8021 17.9337L27.845 17.9029C27.9139 17.5203 27.9789 17.1489 28.1582 16.4169C28.2455 16.0664 28.3326 15.7192 28.4222 15.37L28.4082 15.3316C27.9206 15.4168 27.7903 15.4351 27.3211 15.4978L27.2855 15.5252C27.2807 15.5608 27.2757 15.595 27.2712 15.6291C27.1983 15.5179 27.0925 15.4229 26.9295 15.3638C26.7208 15.2863 26.2309 15.3861 25.8098 15.7479C25.5138 16.0063 25.3717 16.3603 25.291 16.6998ZM26.3152 16.7207C26.4197 16.2989 26.5395 15.9422 26.8503 15.9422C27.0467 15.9422 27.1502 16.1132 27.1291 16.4049C27.1111 16.4838 27.0924 16.5625 27.073 16.6411C27.042 16.7665 27.0083 16.8907 26.9755 17.0151C26.9421 17.1002 26.9033 17.1805 26.8607 17.234C26.7808 17.3409 26.5905 17.4072 26.481 17.4072C26.4499 17.4072 26.2582 17.4072 26.2516 17.1404C26.25 17.0076 26.279 16.8709 26.3152 16.7207ZM31.6638 15.3282L31.626 15.2876C31.1435 15.3798 31.0562 15.3945 30.6129 15.451L30.5802 15.4817C30.5788 15.4868 30.5774 15.4944 30.5751 15.5014L30.5737 15.4945C30.2436 16.213 30.2532 16.058 29.9846 16.6235C29.9831 16.5978 29.983 16.5818 29.9816 16.5544L29.9143 15.3282L29.8721 15.2876C29.3666 15.3798 29.3547 15.3945 28.8879 15.451L28.8514 15.4817C28.8463 15.4964 28.8463 15.5125 28.8433 15.53L28.8463 15.5363C28.9047 15.8176 28.8907 15.7548 28.9492 16.199C28.9765 16.4169 29.0129 16.6361 29.0401 16.8514C29.0862 17.2115 29.112 17.3889 29.1682 17.9387C28.853 18.4295 28.7783 18.6153 28.4747 19.0461L28.4769 19.0504L28.2632 19.3694C28.2388 19.403 28.2166 19.426 28.1855 19.4359C28.1514 19.4517 28.107 19.4546 28.0455 19.4546H27.927L27.751 20.0071L28.3549 20.0168C28.7093 20.0155 28.9321 19.8591 29.052 19.6488L29.4318 19.0349H29.4257L29.4657 18.9916C29.7211 18.4729 31.6638 15.3282 31.6638 15.3282ZM25.291 22.5833H25.0348L25.983 19.6244H26.2974L26.3974 19.3196L26.4069 19.6585C26.3952 19.868 26.5698 20.0538 27.0287 20.0231H27.5594L27.742 19.4533H27.5424C27.4276 19.4533 27.3742 19.426 27.3809 19.3673L27.3713 19.0224H26.3886V19.0243C26.0709 19.0305 25.1219 19.053 24.9299 19.1013C24.6975 19.1577 24.4525 19.3241 24.4525 19.3241L24.5488 19.0189H23.6295L23.4379 19.6244L22.4771 22.6285H22.2907L22.1079 23.1942H23.9388L23.8775 23.3828H24.7796L24.8396 23.1942H25.0926L25.291 22.5833ZM24.5397 20.2256C24.3925 20.264 24.1187 20.3806 24.1187 20.3806L24.3623 19.6244H25.0926L24.9165 20.1753C24.9165 20.1753 24.6906 20.188 24.5397 20.2256ZM24.5538 21.3059C24.5538 21.3059 24.3244 21.3331 24.1734 21.3652C24.0247 21.4078 23.7457 21.5419 23.7457 21.5419L23.9974 20.7549H24.7315L24.5538 21.3059ZM24.1445 22.5902H23.4119L23.6243 21.9261H24.3546L24.1445 22.5902ZM25.9089 20.7549H26.9649L26.8132 21.2187H25.7431L25.5825 21.7256H26.5189L25.8098 22.6676C25.7602 22.7368 25.7157 22.7613 25.6662 22.7808C25.6166 22.8046 25.5514 22.8325 25.4761 22.8325H25.2163L25.0378 23.3877H25.7172C26.0704 23.3877 26.279 23.2362 26.433 23.0372L26.9192 22.4093L27.0236 23.0469C27.0457 23.1662 27.1367 23.2362 27.1982 23.2633C27.2662 23.2955 27.3365 23.3507 27.4359 23.359C27.5423 23.3632 27.6192 23.3667 27.6703 23.3667H28.0043L28.2047 22.7452H28.073C27.9975 22.7452 27.8672 22.7333 27.8451 22.711C27.8228 22.6837 27.8228 22.642 27.811 22.5782L27.705 21.9393H27.2713L27.4616 21.7256H28.5296L28.6939 21.2187H27.7051L27.859 20.7549H28.8449L29.0277 20.183H26.0888L25.9089 20.7549ZM16.9895 22.7193L17.2359 21.9456H18.249L18.4341 21.3702H17.4201L17.5748 20.894H18.5657L18.7493 20.3367H16.27L16.0903 20.894H16.6536L16.5033 21.3701H15.9385L15.7513 21.9554H16.3144L15.9858 22.9791C15.9416 23.1146 16.0067 23.1662 16.048 23.2293C16.0903 23.2906 16.1331 23.3311 16.2293 23.3541C16.3287 23.3751 16.3967 23.3876 16.489 23.3876H17.6311L17.8347 22.7501L17.3284 22.8157C17.2307 22.8157 16.9599 22.8047 16.9895 22.7193ZM17.1056 19.0154L16.8489 19.4532C16.7941 19.5488 16.7445 19.6083 16.7 19.6355C16.6608 19.6585 16.583 19.6683 16.4705 19.6683H16.3366L16.1575 20.2283H16.6024C16.8164 20.2283 16.9806 20.1544 17.0591 20.1174C17.1434 20.0748 17.1656 20.0991 17.2307 20.0397L17.3809 19.9169H18.7701L18.9545 19.3339H17.9375L18.1151 19.0153L17.1056 19.0154ZM19.1564 22.7306C19.1328 22.6984 19.1498 22.6417 19.186 22.5237L19.5657 21.338H20.9164C21.1132 21.3353 21.2552 21.3331 21.3478 21.3269C21.447 21.317 21.555 21.2836 21.6726 21.2235C21.7941 21.1606 21.8563 21.0943 21.9087 21.0182C21.9672 20.9423 22.0613 20.7758 22.142 20.5195L22.6192 19.0189L21.2177 19.0266C21.2177 19.0266 20.786 19.0866 20.596 19.1531C20.4043 19.227 20.1303 19.4337 20.1303 19.4337L20.2568 19.0223H19.391L18.1788 22.8157C18.1358 22.9629 18.1069 23.0699 18.1004 23.1342C18.0982 23.2033 18.1929 23.2718 18.2543 23.3234C18.3268 23.3751 18.4341 23.3667 18.5369 23.3751C18.6451 23.3828 18.7989 23.3876 19.0114 23.3876H19.6768L19.881 22.7368L19.2853 22.79C19.2216 22.79 19.1757 22.7578 19.1564 22.7306ZM19.8106 20.5371H21.2293L21.1391 20.8038C21.1265 20.81 21.0962 20.7906 20.9517 20.8067H19.7232L19.8106 20.5371ZM20.0948 19.6424H21.5255L21.4225 19.9637C21.4225 19.9637 20.7483 19.9575 20.6404 19.9763C20.165 20.0539 19.8875 20.2934 19.8875 20.2934L20.0948 19.6424ZM21.171 21.697C21.1592 21.7369 21.1405 21.7612 21.1147 21.7795C21.0858 21.7969 21.0391 21.8031 20.9697 21.8031H20.7676L20.7795 21.4784H19.9386L19.9045 23.0664C19.9033 23.181 19.915 23.2473 20.0038 23.3004C20.0928 23.3667 20.3665 23.3752 20.7351 23.3752H21.2619L21.452 22.7806L20.9934 22.8044L20.8408 22.8128C20.8201 22.8044 20.8001 22.7967 20.778 22.7759C20.7587 22.7579 20.726 22.7689 20.7314 22.6544L20.7351 22.2473L21.216 22.2285C21.4758 22.2285 21.5868 22.1487 21.6815 22.0728C21.7718 22 21.8015 21.9164 21.8356 21.8031L21.9163 21.4427H21.2552L21.1709 21.6969L21.171 21.697Z"
                fill="#FEFEFE"/>
    </g>
    <defs>
        <clipPath id="clip0_235_42">
            <rect width="31.2" height="18.4" fill="white" transform="translate(2.89999 8.80005)"/>
        </clipPath>
    </defs>
</svg>