<svg viewBox="0 0 37 36" fill="none"
     xmlns="http://www.w3.org/2000/svg">
    <g clip-path="url(#clip0_235_38)">
        <path
                d="M15.1309 11.3741L11.465 20.913H9.07338L7.26936 13.3001C7.15999 12.8323 7.06494 12.6602 6.73211 12.4624C6.18809 12.14 5.28968 11.8386 4.5 11.651L4.55327 11.3741H8.40368C8.89368 11.3741 9.3349 11.73 9.44712 12.3462L10.4003 17.8665L12.7536 11.3741H15.1309ZM18.364 11.3741L16.4933 20.913H14.2306L16.1015 11.3741H18.364ZM24.5016 17.7986C24.511 15.2815 21.3107 15.1418 21.3316 14.0172C21.3393 13.6753 21.6379 13.3113 22.2915 13.2182C22.6153 13.1725 23.5097 13.1362 24.5229 13.6453L24.9192 11.6213C24.3749 11.4066 23.6743 11.2 22.8029 11.2C20.5662 11.2 18.9929 12.4958 18.9803 14.3528C18.9656 15.7264 20.1041 16.4919 20.9603 16.9494C21.8422 17.4166 22.1379 17.7169 22.1339 18.1344C22.1276 18.7744 21.4295 19.0578 20.7806 19.0683C19.6427 19.088 18.983 18.7328 18.4568 18.4655L18.0461 20.5565C18.5755 20.8211 19.5511 21.051 20.5616 21.0627C22.9394 21.0627 24.4946 19.7817 24.5016 17.7986ZM30.4079 20.913H32.4999L30.6722 11.3741H28.7421C28.3068 11.3741 27.9409 11.6497 27.7786 12.0733L24.3836 20.913H26.7596L27.2309 19.4881H30.1337L30.4079 20.913ZM27.8824 17.5334L29.0737 13.9512L29.7581 17.5334H27.8823H27.8824ZM21.2598 23.5386H20.3404V24.4719H21.3687V24.7525H20.0306V22.1635H21.316V22.444H20.3404V23.2621H21.2597V23.5388L21.2598 23.5386ZM21.8437 22.0252H22.1535V24.7524H21.8437V22.0252ZM22.9351 23.8842C22.9421 24.3415 23.2063 24.5296 23.5196 24.5296C23.7416 24.5296 23.8789 24.4874 23.9917 24.4337L24.048 24.6758C23.9388 24.7294 23.7487 24.7947 23.4773 24.7947C22.9528 24.7947 22.6394 24.4145 22.6394 23.8536C22.6394 23.2929 22.9421 22.8548 23.4387 22.8548C23.9987 22.8548 24.1431 23.3851 24.1431 23.7269C24.1431 23.7959 24.1395 23.8458 24.1324 23.8843L22.9351 23.8842ZM23.8436 23.6423C23.8472 23.4311 23.7627 23.0968 23.414 23.0968C23.0971 23.0968 22.9632 23.408 22.9385 23.6423H23.8436ZM25.8292 24.6871C25.7483 24.7294 25.5686 24.7948 25.3398 24.7948C24.8256 24.7948 24.491 24.4145 24.491 23.8459C24.491 23.2735 24.8501 22.8549 25.4066 22.8549C25.5897 22.8549 25.7517 22.9047 25.8362 22.9548L25.766 23.2121C25.6917 23.1699 25.5756 23.1236 25.4066 23.1236C25.0156 23.1236 24.8045 23.4425 24.8045 23.8268C24.8045 24.2569 25.058 24.522 25.3961 24.522C25.5722 24.522 25.6884 24.4759 25.7764 24.4337L25.8292 24.6871ZM26.6985 22.4476V22.8932H27.1422V23.1504H26.6985V24.1531C26.6985 24.3838 26.7585 24.5142 26.931 24.5142C27.0154 24.5142 27.0648 24.5067 27.1107 24.4911L27.1248 24.7488C27.0648 24.7717 26.9698 24.7947 26.85 24.7947C26.7055 24.7947 26.5893 24.7409 26.5154 24.6527C26.4309 24.5488 26.3957 24.3838 26.3957 24.1648V23.1504H26.1314V22.8932H26.3957V22.5476L26.6986 22.4477L26.6985 22.4476ZM27.575 23.4734C27.575 23.2543 27.5712 23.0662 27.5608 22.8932H27.8321L27.8463 23.2618H27.8566C27.9342 23.0124 28.1242 22.8548 28.3319 22.8548C28.3638 22.8548 28.3885 22.8587 28.4167 22.8624V23.1814C28.385 23.1736 28.3534 23.1736 28.3108 23.1736C28.0927 23.1736 27.9375 23.3502 27.8954 23.604C27.8882 23.6561 27.8846 23.7087 27.8848 23.7615V24.7526H27.575V23.4734ZM30.3215 23.8074C30.3215 24.495 29.8811 24.7947 29.4727 24.7947C29.0148 24.7947 28.6557 24.4258 28.6557 23.8383C28.6557 23.2197 29.0325 22.8549 29.5009 22.8549C29.9904 22.8549 30.3215 23.2425 30.3215 23.8074ZM28.9725 23.8267C28.9725 24.2339 29.1839 24.5413 29.4867 24.5413C29.7827 24.5413 30.0044 24.2376 30.0044 23.819C30.0044 23.504 29.86 23.1082 29.4937 23.1082C29.1311 23.1082 28.9725 23.4772 28.9725 23.8267ZM30.7964 23.3964C30.7964 23.2006 30.7926 23.0469 30.7821 22.8933H31.0569L31.0745 23.2006H31.0815C31.166 23.0277 31.3632 22.8549 31.645 22.8549C31.8808 22.8549 32.2472 23.0086 32.2472 23.646V24.7525H31.9374V23.6807C31.9374 23.3813 31.8352 23.1313 31.5429 23.1313C31.3421 23.1313 31.1835 23.2889 31.1274 23.4771C31.1132 23.5194 31.1062 23.5769 31.1062 23.6346V24.7525H30.7964V23.3964Z"
                fill="#1A1F71"/>
    </g>
    <defs>
        <clipPath id="clip0_235_38">
            <rect width="28" height="13.6" fill="white" transform="translate(4.5 11.2)"/>
        </clipPath>
    </defs>
</svg>