<svg class="w-[33px] h-[27px] lg:w-[70px] lg:h-[70px]" viewBox="0 0 37 36" fill="none"
     xmlns="http://www.w3.org/2000/svg">
    <g clip-path="url(#clip0_235_35)">
        <path
                d="M19.0634 16.1115C19.0447 17.5545 20.3783 18.3597 21.3829 18.8384C22.4151 19.3296 22.7618 19.6446 22.7577 20.0839C22.75 20.7562 21.9344 21.0529 21.1711 21.0644C19.8395 21.0846 19.0653 20.7128 18.4498 20.4316L17.9701 22.6268C18.5877 22.9051 19.7312 23.1478 20.9169 23.1584C23.7004 23.1584 25.5214 21.8147 25.5313 19.7313C25.5422 17.0872 21.7916 16.9409 21.8173 15.759C21.8261 15.4007 22.1758 15.0183 22.9419 14.921C23.3212 14.8719 24.3681 14.8343 25.555 15.3688L26.0209 13.245C25.3826 13.0177 24.5622 12.8 23.5408 12.8C20.9209 12.8 19.0782 14.1621 19.0634 16.1115ZM30.4972 12.983C29.989 12.983 29.5607 13.2729 29.3695 13.7179L25.3934 23.0024H28.1749L28.7284 21.5065H32.1272L32.4483 23.0024H34.8998L32.7605 12.983H30.4972ZM30.8863 15.6896L31.689 19.452H29.4907L30.8863 15.6896ZM15.691 12.9831L13.4986 23.0023H16.1491L18.3405 12.9829H15.691M11.7701 12.9829L9.01133 19.8026L7.89537 14.0041C7.76443 13.3568 7.24732 12.983 6.67307 12.983H2.16338L2.10022 13.2739C3.02604 13.4704 4.07793 13.7873 4.71522 14.1264C5.10523 14.3335 5.21644 14.5145 5.34456 15.0067L7.45821 23.0024H10.2591L14.5533 12.983L11.7701 12.9829Z"
                fill="url(#paint0_linear_235_35)"/>
    </g>
    <defs>
        <linearGradient id="paint0_linear_235_35" x1="1510.03" y1="43.9374" x2="1539.35" y2="-1019.92"
                        gradientUnits="userSpaceOnUse">
            <stop stop-color="#222357"/>
            <stop offset="1" stop-color="#254AA5"/>
        </linearGradient>
        <clipPath id="clip0_235_35">
            <rect width="32.8" height="10.4" fill="white" transform="translate(2.10001 12.8)"/>
        </clipPath>
    </defs>
</svg>