<svg viewBox="0 0 37 36" fill="none"
     xmlns="http://www.w3.org/2000/svg">
    <g clip-path="url(#clip0_235_49)">
        <path
                d="M8.40193 5.49219C7.52729 5.49219 6.80428 6.18562 6.80428 7.04029V28.959C6.80428 29.8143 7.52729 30.5071 8.40193 30.5071H28.6076C29.4835 30.5071 30.1896 29.8143 30.1896 28.959V7.04029C30.1896 6.18562 29.4835 5.49219 28.6076 5.49219H8.40193Z"
                fill="white"/>
        <path
                d="M8.39555 5.48682C7.52092 5.48682 6.80855 6.1827 6.80855 7.03737V28.9628C6.80855 29.8181 7.52092 30.5134 8.39555 30.5134H28.6081C29.484 30.5134 30.1957 29.8181 30.1957 28.9628H30.0924C30.0924 29.7623 29.427 30.4135 28.6081 30.4135H8.39555C7.57856 30.4135 6.91255 29.7623 6.91255 28.9628V7.03737C6.91255 6.23849 7.57856 5.58675 8.39555 5.58675H28.6081C29.427 5.58675 30.0924 6.23849 30.0924 7.03737V28.9628H30.1957V7.03737C30.1957 6.1827 29.484 5.48682 28.6081 5.48682H8.39555Z"
                fill="#0023A0"/>
        <path
                d="M30.1434 21.4581V28.9626C30.1434 29.7915 29.4567 30.4629 28.6084 30.4629H8.3958C7.54747 30.4629 6.86205 29.7915 6.86205 28.9626V21.4581H30.1434Z"
                fill="#0023A0"/>
        <path
                d="M23.1836 26.3565V28.5313H22.4211V26.3565L20.4413 23.1567L21.2044 22.9979L22.8096 25.6742L24.3753 23.0543H25.2192L23.1836 26.3565ZM18.3323 23.9191L17.4388 26.2299H19.2326L18.3323 23.9191ZM20.1486 28.5873L19.4914 26.889H17.1807L16.5473 28.5315H15.7754L17.9664 23.0301H18.7295L20.8873 28.4285L20.1486 28.5873ZM13.9502 23.714H13.2691V25.6496H13.9007C14.6651 25.6496 15.1187 25.3399 15.1187 24.6582C15.1187 24.031 14.7139 23.714 13.9502 23.714ZM13.8606 26.3093H13.2691V28.5312H12.506V23.0543H13.9915C15.1757 23.0543 15.8899 23.6177 15.8899 24.633C15.8899 25.7532 15.0786 26.3093 13.8606 26.3093Z"
                fill="white"/>
        <path
                d="M21.4836 7.61914L18.4549 15.6129L18.1617 13.99C17.4086 12.0004 15.9457 10.0182 14.041 9.17215L16.6148 19.3234L19.891 19.321L24.7616 7.61914H21.4836Z"
                fill="#0023A0"/>
        <path
                d="M15.783 7.6156H10.9349L10.8804 7.924C14.7631 8.89455 17.0969 11.1735 18.1632 13.9907L17.1852 8.60455C16.9991 7.86268 16.4572 7.64074 15.783 7.6156Z"
                fill="#FFA000"/>
    </g>
    <defs>
        <clipPath id="clip0_235_49">
            <rect width="24.8" height="26.4" fill="white" transform="translate(6.10001 4.80005)"/>
        </clipPath>
    </defs>
</svg>