<svg viewBox="0 0 37 36" fill="none"
     xmlns="http://www.w3.org/2000/svg">
    <g clip-path="url(#clip0_235_66)">
        <path
                d="M15.0658 25.81C11.9187 25.535 9.1423 24.3668 7.3328 22.5606C6.3032 21.531 5.6784 20.4134 5.3968 19.0967C5.267 18.4983 5.2681 17.5039 5.3968 16.9C5.7895 15.0696 6.9731 13.468 8.8354 12.247C13.0836 9.46072 19.5912 9.47502 23.7998 12.28C24.3586 12.6518 24.7194 12.9477 25.2254 13.446C25.8634 14.0763 26.3122 14.7022 26.7852 15.624C26.8028 15.657 26.8897 15.701 26.9788 15.7186C27.2758 15.7802 27.6751 16.0134 27.9952 16.3126C28.2438 16.5436 28.4363 16.7966 28.9104 17.5149C29.3889 18.2387 31.5548 21.5816 31.6868 21.8005C31.7374 21.8863 31.6362 22.0227 31.5218 22.0227C31.4415 22.0227 31.3832 21.9677 31.2644 21.7807L30.0368 19.8755C27.9468 16.6393 27.8335 16.4897 27.2516 16.1982L26.9458 16.0442H26.0471C25.1495 16.0442 25.1484 16.0453 25.1264 16.1399C25.0076 16.6569 24.9856 16.7845 25.012 16.8087C25.0285 16.8241 25.5378 17.1145 26.145 17.4533L27.2472 18.0715L27.179 18.2156C27.1405 18.2948 27.0976 18.3608 27.0822 18.3608C27.0668 18.3608 26.1384 17.846 25.0197 17.2179C23.8999 16.5909 22.9187 16.0585 22.8395 16.0365C22.5205 15.9485 22.0321 16.3005 22.0321 16.6184C22.0321 16.9396 22.1278 17.0342 24.0935 18.6435C25.32 19.6489 26.0218 20.2517 26.1285 20.3947C26.3243 20.6543 26.5212 21.0371 26.7038 21.5079C27.0228 22.3373 27.5431 22.7993 28.3956 23.0127L28.6761 23.0831L28.653 23.2371C28.6465 23.2961 28.6328 23.3541 28.6123 23.4098C28.576 23.4505 28.0106 23.2701 27.6839 23.1128C27.1724 22.8675 26.8204 22.5177 26.475 21.9094C26.3246 21.9547 26.176 22.0057 26.0295 22.0623C25.5994 22.2185 25.5785 22.2317 25.1715 22.6288C23.4379 24.3206 20.9519 25.4019 17.9489 25.7693C17.4616 25.8298 15.5839 25.8562 15.0658 25.81ZM18.0545 25.2897C19.4317 25.1071 20.4998 24.8343 21.6185 24.3767C22.7922 23.896 23.8988 23.2052 24.6732 22.4704L24.9779 22.18L24.2101 21.8137C23.3895 21.421 23.3081 21.3561 23.2036 21.0052C23.1376 20.7852 23.2124 20.5487 23.4214 20.3221L23.5853 20.145L23.2289 19.8744C22.9473 19.6599 22.8593 19.5664 22.8043 19.4234C22.7611 19.3122 22.7464 19.1919 22.7616 19.0736C22.7768 18.9552 22.8213 18.8425 22.8912 18.7458L22.999 18.594L21.8737 18.396C21.4444 18.3243 21.0167 18.2429 20.5911 18.1518C20.4976 18.1155 20.414 18.0576 20.3471 17.9829C20.2802 17.9082 20.2319 17.8187 20.2061 17.7217C20.1819 17.6205 20.7341 14.9277 20.8573 14.5427C20.9003 14.4437 20.9646 14.3553 21.0456 14.2838C21.1266 14.2123 21.2223 14.1595 21.3259 14.1291C21.5118 14.095 24.8294 14.678 24.9944 14.7748C25.2562 14.9266 25.3387 15.173 25.2562 15.5503L25.221 15.7087H25.4047C25.5059 15.7087 25.7457 15.6955 25.936 15.6812L26.2836 15.6537L26.1109 15.3347C25.5895 14.3645 24.6479 13.3899 23.4841 12.6155C22.9407 12.2547 21.7824 11.6838 21.085 11.4341C20.0016 11.0587 18.8783 10.8099 17.7377 10.6927C17.1052 10.6267 15.4475 10.6267 14.8337 10.6938C13.3608 10.8544 12.0243 11.1877 10.855 11.686C8.149 12.8399 6.3285 14.7506 5.8632 16.9297C5.7422 17.4984 5.7312 18.495 5.8434 19.0131C6.0898 20.1571 6.6277 21.1482 7.5033 22.0711C9.2853 23.9488 12.01 25.1027 15.2759 25.3645C15.7126 25.3986 17.609 25.348 18.0545 25.2897ZM17.4572 23.2393C17.2889 23.1909 17.1184 22.9896 17.0832 22.7993C17.059 22.6739 17.0876 22.5881 17.2658 22.2427C17.9874 20.8457 18.3009 19.562 18.3009 18.0022C18.3009 16.4952 18.0237 15.3237 17.334 13.9179C17.1855 13.6165 17.0645 13.336 17.0645 13.2964C17.0645 13.1468 17.1899 12.9301 17.3252 12.8454C17.5111 12.7277 17.8224 12.7497 17.972 12.8894C18.0292 12.9444 18.1777 13.1875 18.302 13.4328C18.7959 14.4008 19.1336 15.4645 19.3008 16.5711C19.4042 17.2564 19.4251 18.5544 19.3426 19.1814C19.2039 20.2925 18.8844 21.3734 18.3966 22.3813C18.0996 22.9918 17.9148 23.2437 17.7586 23.2437C17.721 23.2447 17.6837 23.2502 17.6475 23.2602C17.5833 23.2666 17.5185 23.2595 17.4572 23.2393ZM15.4486 22.1888C15.1912 22.1129 15.0042 21.7961 15.079 21.5585C15.0977 21.5013 15.2187 21.2362 15.3496 20.97C15.8947 19.881 16.1266 18.662 16.0195 17.4489C15.9271 16.4743 15.7522 15.8594 15.3122 14.9596C15.0163 14.3557 15.0031 14.2622 15.1747 14.0202C15.3375 13.7892 15.7456 13.7507 15.959 13.9476C16.1075 14.084 16.5695 15.0476 16.7466 15.5932C17.3358 17.4022 17.2451 19.364 16.4914 21.1108C16.1042 22.0194 15.8325 22.2999 15.4486 22.1888ZM13.3784 21.1229C13.296 21.0829 13.2234 21.0254 13.1656 20.9543C13.1078 20.8832 13.0663 20.8004 13.044 20.7115C13.0209 20.6081 13.0594 20.4937 13.2497 20.1098C13.9449 18.7018 13.9526 17.3444 13.2717 15.9683C12.9736 15.3633 12.967 15.2434 13.22 15.0047C13.3443 14.887 13.3971 14.8661 13.572 14.8661C13.8657 14.8661 14.0186 15.0146 14.2804 15.5536C14.6841 16.383 14.8502 17.1024 14.848 18.0242C14.848 18.9702 14.6929 19.6214 14.2617 20.4959C14.0142 20.9964 13.8921 21.1284 13.6457 21.1625C13.5547 21.1706 13.4631 21.1571 13.3784 21.1229ZM11.4457 20.1307C11.2963 20.0516 11.1834 19.9175 11.1311 19.7567C11.0838 19.5895 11.1223 19.4564 11.3126 19.144C11.5568 18.7425 11.614 18.528 11.614 18.0022C11.614 17.4775 11.5568 17.2619 11.3126 16.8604C11.2402 16.7456 11.1784 16.6245 11.1278 16.4985C11.0497 16.2345 11.2697 15.91 11.5656 15.8539C11.8164 15.8066 11.9891 15.9199 12.2201 16.2796C12.5474 16.7992 12.721 17.4008 12.721 18.0149C12.721 18.629 12.5474 19.2305 12.2201 19.7501C11.9836 20.1153 11.7207 20.2451 11.4457 20.1307ZM25.8447 21.751C26.068 21.6707 26.2616 21.5959 26.2737 21.5827C26.2869 21.5706 26.244 21.4276 26.178 21.2648C26.0438 20.9326 26.0658 20.9403 25.5906 21.0316C25.0758 21.1306 24.7777 21.0426 24.2156 20.629C24.0616 20.5157 23.9043 20.4233 23.8636 20.4233C23.824 20.4233 23.7371 20.4816 23.6689 20.5542C23.5259 20.7082 23.5039 20.9502 23.6205 21.0932C23.7228 21.2175 25.1352 21.8896 25.3035 21.8929C25.3772 21.8951 25.6214 21.8313 25.8447 21.751ZM25.6225 20.6697C25.8315 20.6279 25.8546 20.6136 25.8183 20.5465C25.7787 20.4717 23.8251 18.8503 23.6557 18.7513C23.516 18.6699 23.4027 18.6886 23.2872 18.8129C22.9473 19.1759 22.9869 19.2529 23.8658 19.9272C24.9262 20.739 25.0384 20.7874 25.6225 20.6697ZM23.0001 18.2156C23.0001 18.2046 22.779 18.0143 22.5073 17.7921C21.8385 17.241 21.6955 17.0353 21.6955 16.6283C21.6955 16.2873 21.9221 15.9595 22.2873 15.7703C22.5031 15.6735 22.745 15.6514 22.9748 15.7076C23.1046 15.7494 23.6876 16.0651 24.4961 16.5304L24.6666 16.6283L24.8074 15.9617C24.9504 15.2797 24.9537 15.1015 24.8206 15.0597C24.2441 14.9494 23.6666 14.8445 23.0881 14.7451C21.4678 14.4591 21.2907 14.4426 21.2159 14.5647C21.1752 14.6307 20.5592 17.4863 20.5592 17.6084C20.5592 17.6689 20.59 17.7448 20.6274 17.7756C20.6648 17.8075 21.1906 17.9208 21.7956 18.0286C22.9638 18.2387 23.0001 18.2442 23.0001 18.2156Z"
                fill="black"/>
    </g>
    <defs>
        <clipPath id="clip0_235_66">
            <rect width="26.4" height="26.4" fill="white" transform="translate(5.3 4.80005)"/>
        </clipPath>
    </defs>
</svg>