<svg width="32" height="32" viewBox="0 0 32 32" fill="none" xmlns="http://www.w3.org/2000/svg">
    <path
            d="M24.4375 30C23.2175 30 21.5037 29.5588 18.9375 28.125C15.8169 26.375 13.4031 24.7594 10.2994 21.6637C7.30687 18.6731 5.85062 16.7369 3.8125 13.0281C1.51 8.84062 1.9025 6.64562 2.34125 5.7075C2.86375 4.58625 3.635 3.91562 4.63187 3.25C5.19809 2.87902 5.79729 2.56101 6.42187 2.3C6.48437 2.27312 6.5425 2.2475 6.59437 2.22437C6.90375 2.085 7.3725 1.87437 7.96625 2.09937C8.3625 2.24812 8.71625 2.5525 9.27 3.09938C10.4056 4.21938 11.9575 6.71375 12.53 7.93875C12.9144 8.76437 13.1687 9.30937 13.1694 9.92062C13.1694 10.6362 12.8094 11.1881 12.3725 11.7837C12.2906 11.8956 12.2094 12.0025 12.1306 12.1062C11.655 12.7312 11.5506 12.9119 11.6194 13.2344C11.7587 13.8825 12.7981 15.8119 14.5062 17.5163C16.2144 19.2206 18.0881 20.1944 18.7387 20.3331C19.075 20.405 19.2594 20.2962 19.9044 19.8037C19.9969 19.7331 20.0919 19.66 20.1912 19.5869C20.8575 19.0913 21.3837 18.7406 22.0825 18.7406H22.0862C22.6944 18.7406 23.215 19.0044 24.0775 19.4394C25.2025 20.0069 27.7719 21.5387 28.8987 22.6756C29.4469 23.2281 29.7525 23.5806 29.9019 23.9762C30.1269 24.5719 29.915 25.0387 29.7769 25.3512C29.7537 25.4031 29.7281 25.46 29.7012 25.5231C29.4382 26.1466 29.1183 26.7445 28.7456 27.3094C28.0812 28.3031 27.4081 29.0725 26.2844 29.5956C25.7073 29.8686 25.0758 30.0068 24.4375 30Z"
            fill="black"/>
</svg>