<svg width="28" height="20" viewBox="0 0 28 20" fill="none" xmlns="http://www.w3.org/2000/svg">
<path fill-rule="evenodd" clip-rule="evenodd" d="M1.2 19.6C0.9171 19.6 0.645789 19.4876 0.445751 19.2876C0.245712 19.0875 0.133331 18.8162 0.133331 18.5333C0.133331 18.2504 0.245712 17.9791 0.445751 17.7791C0.645789 17.579 0.9171 17.4666 1.2 17.4666H26.8C27.0829 17.4666 27.3542 17.579 27.5542 17.7791C27.7543 17.9791 27.8667 18.2504 27.8667 18.5333C27.8667 18.8162 27.7543 19.0875 27.5542 19.2876C27.3542 19.4876 27.0829 19.6 26.8 19.6H1.2ZM0.133331 9.99998C0.133331 10.2829 0.245712 10.5542 0.445751 10.7542C0.645789 10.9543 0.9171 11.0666 1.2 11.0666H26.8C27.0829 11.0666 27.3542 10.9543 27.5542 10.7542C27.7543 10.5542 27.8667 10.2829 27.8667 9.99998C27.8667 9.71708 27.7543 9.44577 27.5542 9.24573C27.3542 9.04569 27.0829 8.93331 26.8 8.93331H1.2C0.9171 8.93331 0.645789 9.04569 0.445751 9.24573C0.245712 9.44577 0.133331 9.71708 0.133331 9.99998ZM0.133331 1.46664C0.133331 1.74954 0.245712 2.02085 0.445751 2.22089C0.645789 2.42093 0.9171 2.53331 1.2 2.53331H26.8C27.0829 2.53331 27.3542 2.42093 27.5542 2.22089C27.7543 2.02085 27.8667 1.74954 27.8667 1.46664C27.8667 1.18374 27.7543 0.912432 27.5542 0.712393C27.3542 0.512354 27.0829 0.399975 26.8 0.399975H1.2C0.9171 0.399975 0.645789 0.512354 0.445751 0.712393C0.245712 0.912432 0.133331 1.18374 0.133331 1.46664Z" fill="#ED953E"/>
</svg>
